<svg xmlns="http://www.w3.org/2000/svg" xmlns:xlink="http://www.w3.org/1999/xlink" version="1.1" x="0px" y="0px" viewBox="0 0 100 125" enable-background="new 0 0 100 100" xml:space="preserve"><path d="M68.9,93.5c0,0.83-0.68,1.5-1.5,1.5h-34.8c-0.83,0-1.5-0.67-1.5-1.5s0.67-1.5,1.5-1.5H48.5V64.8  c-22.931-0.97-23.199-24.42-23.199-24.66l0.01-0.2l4.64-33.65c0.11-0.82,0.86-1.39,1.69-1.28c0.82,0.12,1.4,0.87,1.28,1.7  l-4.62,33.53C28.32,42,29.11,61.84,50,61.84c20.931,0,21.67-19.82,21.689-21.6L67.07,6.71c-0.109-0.83,0.461-1.58,1.28-1.7  c0.81-0.11,1.58,0.46,1.69,1.28l4.658,33.85c0,0.24-0.279,23.69-23.199,24.66V92h15.9C68.221,92,68.9,92.67,68.9,93.5z"/><path d="M68.56,40.418C68.479,42.831,67.318,58.7,50,58.7c-17.189,0-18.468-15.428-18.56-18.282l0.684-4.918h35.752L68.56,40.418z"/><path d="M43.47,15.11c0,0,1.99,0.51,4.54,0.97c0.181,0.03,0.36,0.06,0.54,0.09C55.45,17.36,60,18.15,60,21  c0,2.84-3.93,3.67-8.47,4.62c-1.63,0.35-2.12,0.47-2.25,0.51c-0.03,0.01-0.04,0.01-0.04,0.01c-2.061,0.7-2.601,1.9-1.2,2.68  c0.01,0.01,0.02,0.01,0.03,0.02c0,0,0,0,0.149,0.06h0.011c0.039,0.02,0.079,0.04,0.14,0.06c0.06,0.02,0.13,0.05,0.22,0.08  c0.17,0.06,0.391,0.15,0.7,0.27c0.19,0.07,0.38,0.15,0.55,0.21c2.76,1.05,5.66,2.32,5.66,4.98h-3c0-0.16-0.13-0.34-0.35-0.53  c-0.49-0.42-1.44-0.86-2.36-1.24c-0.021-0.02-0.05-0.04-0.07-0.05c0,0,0,0-0.149-0.05c-0.021-0.01-0.04-0.02-0.07-0.03  c-0.03-0.01-0.07-0.02-0.11-0.04c-0.05-0.02-0.1-0.04-0.159-0.06c-0.221-0.09-0.54-0.21-1.011-0.39  c-2.819-1.07-5.739-2.17-5.819-4.69c-0.091-2.92,3.89-3.76,8.51-4.73c0.189-0.04,0.39-0.08,0.6-0.13c0.62-0.13,0.95-0.2,1.13-0.24  c0.04-0.01,0.08-0.02,0.12-0.03c0.07-0.02,0.08-0.02,0.08-0.02c2.11-0.65,2.08-1.62-0.05-2.17c0,0-1.36-0.35-3.6-0.77  c-0.36-0.06-0.74-0.13-1.15-0.2C40.35,17.8,36,16.9,36,14c0-2.73,4.01-3.34,12.37-4.36c0.13-0.02,0.26-0.03,0.39-0.05  C49,9.56,49.24,9.53,49.5,9.5c0,0,1.54-0.11,3.13-0.42C54.3,8.77,56,8.27,56,7.5V7h8c0,3.46-5.44,4.4-14.39,5.51  c-0.29,0.04-0.58,0.07-0.88,0.11c-0.2,0.02-0.391,0.05-0.58,0.07c-0.181,0.02-0.36,0.05-0.551,0.07c-0.21,0.03-0.409,0.06-0.6,0.08  c-2.09,0.3-3.48,0.56-3.48,0.56C41.36,13.8,41.33,14.57,43.47,15.11z"/></svg>