<svg version="1" xmlns="http://www.w3.org/2000/svg" width="533.333" height="533.333" viewBox="0 0 400.000000 400.000000"><path d="M24 162.5c0 19.7.3 24.5 1.3 24.5.8 0 2.4 1.2 3.8 2.6 2.3 2.5 2.3 2.7.5 3.8-4.3 2.5-6.7 5.2-6.1 6.6.3.8 2.1 2.6 4 4s3.5 2.8 3.5 3.1c0 .4-1.8 1.8-4 3.3-2.2 1.4-4 3.3-4 4.2 0 .8 1.8 3.2 4.1 5.2l4 3.7-4.3 3.7-4.3 3.8 4.3 3.8c2.3 2.1 4.2 4.2 4.2 4.7 0 .6-1.6 2.3-3.5 3.8s-3.5 3.3-3.5 4c.1.7 1.9 2.4 4 3.9 4.4 3.1 4.9 4.4 2.1 5.3-2.5.8-7.1 4.4-7.1 5.6 0 .8 3.7-.5 9.9-3.5 1.3-.6 2.9-1.9 3.5-2.9.9-1.6.5-2.4-2.6-5.1-2.1-1.8-3.8-3.6-3.8-3.9 0-.3 1.6-2.1 3.5-4s3.5-4 3.5-4.6c0-.6-1.8-2.4-4-4l-4.1-2.9 3.5-2.7c5.7-4.4 5.7-7.1-.1-10.5-1.9-1.1-3.3-2.4-3.1-3 .2-.5 1.9-1.9 3.8-3.2 4.8-3.3 4.9-5.2.3-9.4-3.5-3.4-3.7-3.7-1.9-4.8 5.6-3.4 6.1-4.2 4.7-7.2-.9-2-.9-3-.2-3.2.7-.2 1.1-7.5 1.1-22.3V143l167.8.2 167.7.3v114l-163.7.3L45 258v5h333V138H24v24.5z"/><path d="M74 201.5V227h10v-51H74v25.5zM96 201.5V227h31.1l-.3-3.8-.3-3.7-10.2-.3-10.3-.3V176H96v25.5zM135 201.5V227h10v-51h-10v25.5zM153 177.7c0 .4 3.4 11.7 7.7 25 6.1 19.3 8 24.3 9.3 24.3 1.4 0 3.3-4.7 9-21.3 3.9-11.6 7.5-21.5 7.8-21.9.4-.4 4.1 9.2 8.2 21.3 5.7 16.9 7.8 21.9 9.1 21.9 1.3 0 2.7-3.2 5.9-13.3 2.3-7.2 5.8-18.3 7.7-24.5 2-6.2 3.3-11.5 3-11.8-1.9-1.9-3.9 2.5-9.7 21.5-3.5 11.6-6.6 21.1-6.9 21.1-.3 0-3.9-9.7-8-21.5-5.8-17-7.7-21.5-9-21.3-1.1.2-3.9 6.9-9.2 22.2l-7.6 22-3.1-10c-1.7-5.4-4.7-15.4-6.8-22.2-3-9.7-4.1-12.2-5.6-12.2-1 0-1.8.3-1.8.7zM232 202c0 21.6.2 25 1.5 25s1.5-3.4 1.5-25-.2-25-1.5-25-1.5 3.4-1.5 25zM253 202c0 21.4.2 25 1.5 25 1.2 0 1.5-3.3 1.7-21.5l.3-21.6 16 21.5c8.8 11.9 16.6 21.5 17.3 21.6.9 0 1.2-5.6 1.2-25 0-21.4-.2-25-1.5-25-1.2 0-1.5 3.3-1.7 21.5l-.3 21.6-16-21.5c-8.8-11.9-16.6-21.5-17.2-21.6-1 0-1.3 5.6-1.3 25zM307 202v25h15c12.7 0 15-.2 15-1.5s-2.1-1.5-13-1.5h-13v-21h11c9.1 0 11-.3 11-1.5s-1.9-1.5-11-1.5h-11v-20h13c10.9 0 13-.2 13-1.5s-2.3-1.5-15-1.5h-15v25z"/></svg>